<?xml version="1.0" encoding="UTF-8"?>
<svg version="1.1" xmlns="http://www.w3.org/2000/svg" width="512" height="512">
<path d="M0 0 C4.11361679 3.54809132 8.06499718 7.25612589 12 11 C12.69609375 11.63164063 13.3921875 12.26328125 14.109375 12.9140625 C29.81462902 27.64585036 40.99140052 47.83453862 48 68 C48.22526367 68.64727051 48.45052734 69.29454102 48.68261719 69.96142578 C61.4646701 107.51440434 58.11336452 149.0217659 41.19140625 184.6875 C23.49192848 220.35912534 -7.37870896 247.92454609 -45 261 C-45.64727051 261.22526367 -46.29454102 261.45052734 -46.96142578 261.68261719 C-85.41631668 274.7716575 -127.68460705 270.88148865 -163.91552734 253.05761719 C-199.16780995 235.17135714 -225.58715881 203.86099692 -238.6875 166.75 C-251.44282356 126.75806146 -248.03983124 84.35524222 -229.00292969 47.04589844 C-222.35939414 34.38807548 -213.80455713 23.35646928 -204 13 C-203.18015625 12.11570313 -202.3603125 11.23140625 -201.515625 10.3203125 C-149.35268133 -44.15755471 -57.63737798 -47.39413043 0 0 Z M-107.3125 31.5625 C-108.96623844 34.93122645 -109.25664071 36.90837583 -109.625 40.5625 C-110.36103521 45.50731836 -110.36103521 45.50731836 -113.1328125 47.64453125 C-114.8889757 48.47019007 -116.66930093 49.24615454 -118.46875 49.97265625 C-127.45688645 53.62061904 -132.99115708 63.02803291 -136.9609375 71.44140625 C-141.46979463 82.54404316 -140.70190752 94.42725555 -136.21484375 105.4453125 C-131.01297793 116.38428436 -122.63050587 125.28553413 -111.33984375 130.015625 C-106.19656199 131.53153962 -100.95498097 132.28343621 -95.63696289 132.92529297 C-90.03863453 133.63420392 -85.93660035 134.57924956 -82.25 139.1875 C-79.9445598 144.37474044 -79.36774181 148.86488077 -81.0625 154.25 C-82.76657691 158.2471205 -85.135221 159.98709427 -89 162 C-92.74143125 163.24714375 -96.24289844 163.15475328 -100.140625 163.17578125 C-101.78516894 163.19898712 -103.42970022 163.22310476 -105.07421875 163.24804688 C-107.65910223 163.28308368 -110.24352178 163.31246627 -112.82861328 163.32592773 C-115.3290192 163.34148645 -117.82807882 163.38174916 -120.328125 163.42578125 C-121.47380951 163.42291862 -121.47380951 163.42291862 -122.64263916 163.41999817 C-128.17009025 163.54477004 -131.41929693 164.88341018 -136 168 C-139.01240546 171.51447303 -140.35453906 175.5054731 -140.0625 180.125 C-139.20759805 184.43336723 -137.21450817 186.99513367 -134 190 C-128.50892195 192.91391376 -124.21467929 193.39309982 -118.0625 193.1875 C-117.28326172 193.17396484 -116.50402344 193.16042969 -115.70117188 193.14648438 C-113.80047596 193.11150224 -111.90014166 193.05770959 -110 193 C-109.79044596 194.97753906 -109.58089193 196.95507812 -109.37133789 198.93261719 C-108.6263351 203.08033816 -106.59361224 205.85329206 -103.203125 208.29296875 C-99.71903644 210.27133687 -97.43298704 211 -93.375 211 C-88.63628162 209.59593529 -85.44779312 207.59257244 -82.125 203.9375 C-80.37639461 199.37169703 -80.77150433 194.83226022 -81 190 C-80.030625 189.814375 -79.06125 189.62875 -78.0625 189.4375 C-68.61055287 186.69338632 -60.4342401 177.6394755 -55.4609375 169.47265625 C-50.06422353 158.7265679 -48.44586579 146.55827945 -52 135 C-57.23468808 121.5879602 -64.748873 112.6808769 -77.95703125 106.4296875 C-83.27246092 104.34641443 -88.86807632 103.61058894 -94.51513672 102.97314453 C-100.06560312 102.33060572 -104.03868789 101.38159328 -107.75 96.875 C-109.77159862 92.22532318 -110.83323318 87.70098622 -109.3046875 82.74609375 C-107.53922775 78.97190224 -105.77689516 76.00647555 -102 74 C-98.02709104 72.62951207 -93.91202956 72.84676012 -89.76171875 72.82421875 C-88.12042992 72.8010178 -86.47915384 72.77690035 -84.83789062 72.75195312 C-82.26399213 72.71689574 -79.69056294 72.687516 -77.11645508 72.67407227 C-74.62263894 72.65851732 -72.13017388 72.61826465 -69.63671875 72.57421875 C-68.87606613 72.57612717 -68.11541351 72.57803558 -67.33171082 72.58000183 C-61.81424769 72.45490271 -58.56438888 71.12753882 -54 68 C-50.97364084 64.26749038 -50.08110757 60.78534684 -50 56 C-51.67694297 50.70125711 -54.27515399 47.02874745 -59 44 C-61.82411765 43.05862745 -63.52918032 42.88274618 -66.44921875 42.90234375 C-67.29677734 42.90556641 -68.14433594 42.90878906 -69.01757812 42.91210938 C-70.33918945 42.92467773 -70.33918945 42.92467773 -71.6875 42.9375 C-73.02651367 42.94426758 -73.02651367 42.94426758 -74.39257812 42.95117188 C-76.59511987 42.96295017 -78.79752599 42.97939836 -81 43 C-80.94303385 41.02449544 -80.88606771 39.04899089 -80.82910156 37.07348633 C-81.177156 32.8505916 -83.92025585 30.1597252 -86.6875 27.1875 C-94.822488 23.01007373 -101.44287993 25.05832641 -107.3125 31.5625 Z " fill="white" transform="translate(277,64)"/>
<path d="M0 0 C6.00984994 0.45821628 11.34873982 1.4760901 17 3.5625 C17.72493652 3.82643555 18.44987305 4.09037109 19.19677734 4.36230469 C58.18642092 18.90879668 89.27422341 47.47558372 106.61132812 85.38330078 C123.0840432 122.73760466 123.15146964 164.76163236 108.91625977 202.75488281 C101.40932779 222.01890255 90.29984629 238.18354076 76 253 C75.21109375 253.85207031 74.4221875 254.70414063 73.609375 255.58203125 C53.1565993 277.08453551 24.75124333 290.17372941 -4 296 C-5.82144531 296.36931641 -5.82144531 296.36931641 -7.6796875 296.74609375 C-45.99706757 303.04543628 -86.13810584 293.63910843 -118.1171875 271.87890625 C-125.58140827 266.44068826 -132.32189709 260.35373791 -139 254 C-139.69609375 253.36835938 -140.3921875 252.73671875 -141.109375 252.0859375 C-159.67749943 234.66872987 -173.31375465 208.72280588 -179 184 C-179.02452507 182.33351379 -179.02812318 180.66642938 -179 179 C-178.25129639 178.93006836 -177.50259277 178.86013672 -176.73120117 178.78808594 C-156.14377668 176.82692842 -136.98075986 174.08274249 -117.46484375 167.171875 C-114 166 -114 166 -112 166 C-111.79955078 166.54301758 -111.59910156 167.08603516 -111.39257812 167.64550781 C-107.29765802 178.61636518 -103.27884411 188.71517523 -96 198 C-95.38640625 198.7940625 -94.7728125 199.588125 -94.140625 200.40625 C-82.10052081 214.93397902 -62.80257145 225.77703589 -44 228 C-18.88801091 229.97233014 2.69836461 224.53266918 22.27734375 208.390625 C26.82079788 204.40125065 31.68735456 200.12567873 33 194 C33.05879201 189.41422318 32.61757273 186.00089374 30.1875 182.0625 C26.11833144 178.22585536 22.6983265 177.5347555 17.23046875 177.6953125 C11.90866167 178.42228439 8.78651712 182.19024564 5.25 185.875 C-4.23306449 195.51940207 -16.12068282 200.04190869 -29.54003906 200.42163086 C-37.40838984 200.46879453 -44.71601667 200.2565254 -52 197 C-52.78890625 196.69449219 -53.5778125 196.38898438 -54.390625 196.07421875 C-65.37842753 191.32320351 -75.15561321 181.96781961 -80 171 C-80.53693684 169.4483679 -81.06064075 167.89211938 -81.57397461 166.33251953 C-81.84173203 165.52138702 -82.10948944 164.71025452 -82.38536072 163.87454224 C-82.58819168 163.2559433 -82.79102264 162.63734436 -83 162 C-82.27638779 161.99191315 -81.55277557 161.98382629 -80.80723572 161.97549438 C-73.96626672 161.89734408 -67.12546941 161.80999264 -60.28475094 161.71247292 C-56.76840549 161.66266478 -53.25208783 161.61633438 -49.7355957 161.578125 C-45.68682493 161.53397607 -41.63840602 161.47438977 -37.58984375 161.4140625 C-35.70820778 161.39673569 -35.70820778 161.39673569 -33.78855896 161.37905884 C-23.94511478 161.5293535 -23.94511478 161.5293535 -15.2578125 157.5625 C-11.62906106 152.55732561 -10.16054598 149.26092787 -11 143 C-13.27944046 138.5255428 -15.47335647 136.11510893 -20 134 C-23.0051086 133.54352721 -25.98369005 133.51173039 -29.01953125 133.48828125 C-29.87810226 133.47033005 -30.73667328 133.45237885 -31.6212616 133.43388367 C-34.3516251 133.37989259 -37.08181492 133.34592126 -39.8125 133.3125 C-41.6686439 133.279317 -43.52476492 133.24482642 -45.38085938 133.20898438 C-49.92044738 133.12417266 -54.45998486 133.05730823 -59 133 C-59 132.34 -59 131.68 -59 131 C-57.56640625 129.625 -57.56640625 129.625 -55.5625 128 C-44.59061524 118.60652674 -35.20552614 106.526163 -28 94 C-14.28003297 94.333893 -2.20423831 100.55799948 7.3125 110.25 C7.92738281 110.91515625 8.54226563 111.5803125 9.17578125 112.265625 C12.31974563 115.25474745 15.06072657 116.29931099 19.375 116.375 C23.951292 116.25457126 26.5442703 115.12661259 30 112 C33.01733466 107.81466483 33.54745406 104.33784336 32.75390625 99.359375 C29.10216009 87.93111241 16.22083897 80.26265007 6.3828125 74.67578125 C0.1320159 71.57925499 -6.41605606 69.28098566 -13 67 C-11.67278709 62.00406849 -10.32777719 57.01869746 -8.79296875 52.08203125 C-3.4771535 34.89476884 -1.39186772 17.90936431 0 0 Z " fill="white" transform="translate(362,183)"/>
<path d="M0 0 C1.58235909 0.55509709 3.15781913 1.13017222 4.7265625 1.72265625 C5.58306396 2.0362207 6.43956543 2.34978516 7.32202148 2.67285156 C49.44449501 18.40965076 89.13817514 45.66983421 117.21875 81.09765625 C118.61040139 82.85123895 120.03140162 84.58203727 121.484375 86.28515625 C130.24496371 96.58434298 137.7767362 107.9785798 144.3515625 119.78515625 C145.93143001 117.41535498 146.97758317 115.41604761 148.1015625 112.84765625 C150.20111632 108.71701231 151.96713837 106.66419516 156.3515625 104.78515625 C162.01074458 104.03889048 166.71130514 104.00819224 171.9140625 106.47265625 C175.70899807 110.07297974 177.80207038 113.42077379 177.984375 118.703125 C177.739423 127.89727167 174.28519563 136.51278473 171.27246094 145.10473633 C170.22575989 148.09995298 169.21669307 151.10605489 168.2109375 154.11523438 C167.54907952 156.04372675 166.88508931 157.97148894 166.21875 159.8984375 C165.92161102 160.78711014 165.62447205 161.67578278 165.31832886 162.59138489 C163.01656936 169.05204307 159.97280433 174.6495521 153.9140625 178.22265625 C146.68199705 179.81018281 140.83024673 177.95174072 134.03515625 175.64453125 C133.0604689 175.32107727 132.08578156 174.99762329 131.08155823 174.66436768 C129.02832961 173.98008489 126.97683314 173.29058521 124.92700195 172.59619141 C121.80044154 171.53900386 118.66748909 170.50277673 115.53320312 169.46875 C113.53343736 168.7994211 111.53407412 168.12888812 109.53515625 167.45703125 C108.60376328 167.1495697 107.6723703 166.84210815 106.7127533 166.52532959 C100.42605671 164.37691306 95.56591496 162.17432601 90.9765625 157.22265625 C88.66557011 152.33401851 88.47237216 148.09885928 89.3515625 142.78515625 C91.13165062 138.4294539 93.5886902 136.26382122 97.5390625 133.78515625 C101.74193364 132.68276382 104.77056877 132.83864851 109.01953125 133.4609375 C111.61946792 133.87695892 111.61946792 133.87695892 115.3515625 133.78515625 C106.97002291 119.78562158 97.72148385 107.17758342 86.60546875 95.2265625 C84.68344155 93.14464396 82.85530295 91.02089728 81.0390625 88.84765625 C56.66448967 61.02331789 21.74514358 41.24957642 -13.0234375 29.59765625 C-17.95678854 27.86142263 -21.04087491 25.49684545 -23.74609375 20.93359375 C-25.40190108 16.99119534 -25.17869927 12.9742242 -24.6484375 8.78515625 C-19.58303381 -1.73529758 -10.3790586 -3.16897492 0 0 Z " fill="white" transform="translate(334.6484375,13.21484375)"/>
<path d="M0 0 C1.35790398 0.44976448 1.35790398 0.44976448 2.74324036 0.90861511 C4.64304725 1.54053149 6.54136672 2.17693588 8.43823242 2.81762695 C11.33015427 3.79233612 14.22799888 4.74761047 17.12695312 5.70117188 C18.9808547 6.32046039 20.83438382 6.94086525 22.6875 7.5625 C23.54699753 7.84495071 24.40649506 8.12740143 25.29203796 8.41841125 C31.38033483 10.49514948 36.07533028 12.74790981 40.51953125 17.54296875 C42.83052364 22.43160649 43.02372159 26.66676572 42.14453125 31.98046875 C40.36444313 36.3361711 37.90740355 38.50180378 33.95703125 40.98046875 C29.75416011 42.08286118 26.72552498 41.92697649 22.4765625 41.3046875 C19.87662583 40.88866608 19.87662583 40.88866608 16.14453125 40.98046875 C24.32575094 54.6454127 33.30935212 67.04605658 44.1171875 78.765625 C45.91726397 80.73218253 47.62541195 82.74587677 49.33203125 84.79296875 C74.15060415 113.0759191 109.11152847 133.30176055 144.51953125 145.16796875 C149.45288229 146.90420237 152.53696866 149.26877955 155.2421875 153.83203125 C156.89799483 157.77442966 156.67479302 161.7914008 156.14453125 165.98046875 C153.81484194 170.81905423 150.98311673 173.65077944 146.14453125 175.98046875 C139.17810401 176.81472951 133.24841058 175.48991616 126.76953125 173.04296875 C125.91302979 172.7294043 125.05652832 172.41583984 124.17407227 172.09277344 C94.66556388 161.06850463 67.61285542 145.05216035 44.14453125 123.98046875 C43.64018555 123.53106934 43.13583984 123.08166992 42.61621094 122.61865234 C32.51572838 113.60242045 22.75183303 104.32324143 14.3125 93.703125 C12.90656994 91.93747951 11.47290892 90.19343052 10.0078125 88.4765625 C1.24968445 78.17750707 -6.28143467 66.78562259 -12.85546875 54.98046875 C-14.43533626 57.35027002 -15.48148942 59.34957739 -16.60546875 61.91796875 C-18.70502257 66.04861269 -20.47104462 68.10142984 -24.85546875 69.98046875 C-30.51465083 70.72673452 -35.21521139 70.75743276 -40.41796875 68.29296875 C-44.21290432 64.69264526 -46.30597663 61.34485121 -46.48828125 56.0625 C-46.24332925 46.86835333 -42.78910188 38.25284027 -39.77636719 29.66088867 C-38.72966614 26.66567202 -37.72059932 23.65957011 -36.71484375 20.65039062 C-36.05298577 18.72189825 -35.38899556 16.79413606 -34.72265625 14.8671875 C-34.42551727 13.97851486 -34.1283783 13.08984222 -33.82223511 12.17424011 C-31.46737703 5.564543 -28.40757087 -0.12507678 -22.04296875 -3.51953125 C-14.37997258 -4.72156987 -7.21034547 -2.4376528 0 0 Z " fill="white" transform="translate(45.85546875,324.01953125)"/>
</svg>
